<svg xmlns="http://www.w3.org/2000/svg"
    width="108"
    height="108"
    viewBox="0 0 24 24"
    fill="none">

    <!-- Background -->
    <rect
        width="24"
        height="24"
        rx="3.9375"
        fill="#3B82F6" />

    <!-- Foreground icon -->
    <g transform="translate(6 6) scale(0.5)">
        <path
            d="M15 5l6.3 6.3a2.4 2.4 0 0 1 0 3.4L17 19"
            fill="none"
            stroke="#FFFFFF"
            stroke-width="2"
            stroke-linecap="round"
            stroke-linejoin="round" />

        <path
            d="M9.586 5.586A2 2 0 0 0 8.172 5H3a1 1 0 0 0-1 1v5.172a2 2 0 0 0 .586 1.414L8.29 18.29a2.426 2.426 0 0 0 3.42 0l3.58-3.58a2.426 2.426 0 0 0 0-3.42z"
            fill="none"
            stroke="#FFFFFF"
            stroke-width="2"
            stroke-linecap="round"
            stroke-linejoin="round" />

        <circle
            cx="6.5"
            cy="9.5"
            r="0.5"
            fill="#FFFFFF"
            stroke="#FFFFFF"
            stroke-width="2"
            stroke-linecap="round"
            stroke-linejoin="round" />
    </g>
</svg>